<?xml version="1.0" encoding="utf-8"?>
<!-- Generator: Adobe Illustrator 25.0.1, SVG Export Plug-In . SVG Version: 6.00 Build 0)  -->
<svg version="1.1" id="レイヤー_1" xmlns="http://www.w3.org/2000/svg" xmlns:xlink="http://www.w3.org/1999/xlink" x="0px"
	 y="0px" viewBox="0 0 433.82 60.47" style="enable-background:new 0 0 433.82 60.47;" xml:space="preserve">
<g>
	<path d="M34.56,7.08l-14.7,26.1V52.8h-4.98V33.3L0.96,7.08h5.7l6.36,12.78c1.74,3.42,3.18,6.36,4.56,9.66h0.18
		c1.26-3.06,2.82-6.18,4.62-9.72l6.6-12.72H34.56z"/>
	<path d="M71.28,34.44c0,13.74-7.08,19.08-16.2,19.08c-8.52,0-15.3-4.98-15.3-18.78V7.14h4.98V34.8c0,10.38,4.56,14.58,10.56,14.58
		c6.6,0,10.98-4.44,10.98-14.58V7.14h4.98V34.44z"/>
	<path d="M108.24,11.34h-13.5V52.8h-4.98V11.34H76.32v-4.2h31.92V11.34z"/>
	<path d="M145.92,52.8h-5.28l-4.92-14.82h-15.9l-4.8,14.82h-5.1l15.12-45.72h5.76L145.92,52.8z M134.7,34.02l-4.5-13.56
		c-0.96-3.12-1.74-6-2.34-8.7h-0.18c-0.6,2.76-1.44,5.64-2.28,8.52l-4.56,13.74H134.7z"/>
	<path d="M149.82,21.96c1.32-3.6,3.18-10.68,3.84-15.36L159,5.94c-1.44,5.46-4.32,12.84-5.94,15.6L149.82,21.96z"/>
	<path d="M177.24,25.08c-1.2-0.78-3.42-1.92-6.36-1.92c-3.6,0-5.52,2.22-5.52,4.86c0,2.82,1.86,4.14,6.06,5.94
		c5.28,2.16,8.34,4.92,8.34,9.84c0,5.82-4.44,9.66-11.58,9.66c-3.24,0-6.36-0.9-8.58-2.22l1.38-3.84c1.74,1.02,4.56,2.22,7.38,2.22
		c4.38,0,6.54-2.34,6.54-5.28c0-3.06-1.74-4.74-6.06-6.48c-5.52-2.22-8.34-5.28-8.34-9.24c0-5.1,4.08-9.3,10.68-9.3
		c3.12,0,5.76,0.9,7.5,1.98L177.24,25.08z"/>
	<path d="M203.94,7.68c2.64-0.48,6.12-0.9,10.38-0.9c14.76,0,15.96,9.48,15.96,13.08c0,10.74-8.58,14.58-16.68,14.58
		c-1.74,0-3.3-0.06-4.68-0.42V52.8h-4.98V7.68z M208.92,29.88c1.26,0.36,2.88,0.48,4.8,0.48c7.2,0,11.58-3.6,11.58-10.14
		c0-6.54-4.68-9.42-10.92-9.42c-2.52,0-4.38,0.24-5.46,0.48V29.88z"/>
	<path d="M263.33,36.18c0,12.18-8.04,17.34-15.3,17.34c-8.4,0-14.88-6.3-14.88-16.86c0-11.16,6.96-17.34,15.3-17.34
		C257.39,19.32,263.33,26.16,263.33,36.18z M248.27,23.22c-7.08,0-10.02,6.96-10.02,13.26c0,7.26,4.02,13.14,9.9,13.14
		c5.94,0,10.08-5.88,10.08-13.26C258.23,30.54,255.41,23.22,248.27,23.22z"/>
	<path d="M285.83,24.3c-0.54-0.06-1.08-0.12-1.8-0.12c-5.4,0-8.16,5.34-8.16,10.86V52.8h-4.98V29.88c0-3.48-0.06-6.66-0.24-9.78
		h4.38l0.24,6.3h0.18c1.44-4.08,4.86-7.02,8.88-7.02c0.54,0,0.96,0.12,1.5,0.18V24.3z"/>
	<path d="M292.97,14.16l4.92-1.68v7.62h8.46V24h-8.46v18.9c0,4.14,1.26,6.42,4.44,6.42c1.5,0,2.52-0.18,3.36-0.48l0.3,3.84
		c-1.08,0.48-2.76,0.78-4.86,0.78c-7.92,0-8.16-7.2-8.16-10.68V24h-5.04v-3.9h5.04V14.16z"/>
	<path d="M313.43,20.1c0-4.08,0-9.42,3.6-13.08c2.16-2.1,4.98-2.94,7.56-2.94c2.1,0,3.78,0.48,4.86,0.96l-0.84,3.9
		c-0.9-0.36-2.04-0.78-3.78-0.78c-5.16,0-6.42,4.8-6.42,10.08v1.86h7.92V24h-7.92v28.8h-4.98V24h-4.5v-3.9H313.43z"/>
	<path d="M359.27,36.18c0,12.18-8.04,17.34-15.3,17.34c-8.4,0-14.88-6.3-14.88-16.86c0-11.16,6.96-17.34,15.3-17.34
		C353.33,19.32,359.27,26.16,359.27,36.18z M344.21,23.22c-7.08,0-10.02,6.96-10.02,13.26c0,7.26,4.02,13.14,9.9,13.14
		c5.94,0,10.08-5.88,10.08-13.26C354.17,30.54,351.35,23.22,344.21,23.22z"/>
	<path d="M371.81,52.8h-4.98v-48h4.98V52.8z"/>
	<path d="M384.17,14.34c-1.92,0-3.24-1.5-3.24-3.42c0-1.86,1.38-3.36,3.3-3.36c1.98,0,3.24,1.5,3.24,3.36
		C387.47,13.02,386.09,14.34,384.17,14.34z M386.69,52.8h-4.98V20.1h4.98V52.8z"/>
	<path d="M424.37,36.18c0,12.18-8.04,17.34-15.3,17.34c-8.4,0-14.88-6.3-14.88-16.86c0-11.16,6.96-17.34,15.3-17.34
		C418.43,19.32,424.37,26.16,424.37,36.18z M409.31,23.22c-7.08,0-10.02,6.96-10.02,13.26c0,7.26,4.02,13.14,9.9,13.14
		c5.94,0,10.08-5.88,10.08-13.26C419.27,30.54,416.45,23.22,409.31,23.22z"/>
</g>
<rect x="320.88" y="241.88" style="fill:none;" width="2.12" height="0"/>
</svg>
