<?xml version="1.0" encoding="utf-8"?>
<!-- Generator: Adobe Illustrator 25.0.1, SVG Export Plug-In . SVG Version: 6.00 Build 0)  -->
<svg version="1.1" id="レイヤー_1" xmlns="http://www.w3.org/2000/svg" xmlns:xlink="http://www.w3.org/1999/xlink" x="0px"
	 y="0px" viewBox="0 0 297.8 138.13" style="enable-background:new 0 0 297.8 138.13;" xml:space="preserve">
<g>
	<path d="M4.32,14.21H17.8l19.7,56.98l19.63-56.98h13.62L43.8,83.35v52.37H31.35V83.35L4.32,14.21z"/>
	<path d="M82.32,14.21h12.01v80.13c0,21.39,6.01,32.08,18.02,32.08c12.16,0,18.24-10.69,18.24-32.08V14.21h12.16v81.3
		c0,10.25-1.39,18.6-4.17,25.05c-1.42,3.32-3.25,6.23-5.49,8.72c-5.37,6.01-12.26,9.01-20.65,9.01c-11.67,0-20.14-5.54-25.42-16.63
		c-3.13-6.49-4.69-15.21-4.69-26.15V14.21z"/>
	<path d="M154.83,14.21h65.48v11.72H193.8v109.79h-12.45V25.93h-26.51V14.21z"/>
	<path d="M256.05,13.55h13.04l28.71,122.17h-13.4l-7.32-33.47h-28.93l-7.4,33.47h-13.33L256.05,13.55z M275.1,91.11l-8.06-39.62
		l-0.37-1.54c-1.86-9.23-3.15-16.65-3.88-22.27h-0.59c-0.73,6.25-1.78,12.7-3.15,19.34c-0.25,1.27-0.54,2.76-0.88,4.47l-8.13,39.62
		H275.1z"/>
</g>
<rect x="362" y="213.87" style="fill:none;" width="5" height="23"/>
</svg>
